
<svg xmlns="http://www.w3.org/2000/svg" version="1.1" xmlns:xlink="http://www.w3.org/1999/xlink" preserveAspectRatio="none" x="0px" y="0px" width="1080px" height="1080px" viewBox="0 0 1080 1080">
<defs>
<g id="Layer5_0_FILL">
<path fill="#3392BC" stroke="none" d="
M 785.05 368.2
Q 782.8 365.9 780.5 363.7 679.4 265.65 537.6 265.65 392.6 265.65 290.05 368.2 187.6 470.7 187.6 615.65 187.6 760.65 290.05 863.2 323.55 896.6 361.5 919.15 439.9 965.65 537.6 965.65 682.6 965.65 785.05 863.2 884.7 763.55 887.55 623.75 887.6 619.7 887.6 615.65 887.6 521.85 844.7 445.85 821.25 404.35 785.05 368.2 Z"/>
</g>

<g id="Layer4_0_FILL">
<path fill="#FFFFFF" fill-opacity="0.9294117647058824" stroke="none" d="
M 717 373.7
Q 709.35 367.9 701.5 362.65 629.6 314.8 538 314.8 413.75 314.8 325.85 402.7 238 490.55 238 614.8 238 739.05 325.85 826.95 380.8 881.85 449.9 902.45 491.4 914.8 538 914.8 662.25 914.8 750.1 826.95 835.2 741.85 837.9 622.7 838 618.75 838 614.8 838 490.55 750.1 402.7 734.15 386.7 717 373.7 Z"/>
</g>

<g id="Layer3_0_FILL">
<path fill="#B33364" stroke="none" d="
M 714.65 437.15
Q 713.05 435.5 711.4 433.95 639.2 363.9 537.9 363.9 434.35 363.9 361.1 437.15 287.9 510.4 287.9 613.9 287.9 717.5 361.1 790.75 385 814.6 412.1 830.7 468.1 863.9 537.9 863.9 641.5 863.9 714.65 790.75 785.85 719.55 787.9 619.7 787.9 616.8 787.9 613.9 787.9 546.9 757.3 492.6 740.55 463 714.65 437.15 Z"/>
</g>

<g id="Layer2_0_FILL">
<path fill="#FFFFFF" stroke="none" d="
M 680.4 476.55
Q 679.1 475.25 677.8 474 620.05 418 539 418 456.15 418 397.55 476.55 339 535.15 339 617.95 339 700.85 397.55 759.4 416.65 778.5 438.35 791.35 483.15 817.95 539 817.95 621.85 817.95 680.4 759.4 737.35 702.45 739 622.6 739 620.3 739 617.95 739 564.35 714.5 520.95 701.1 497.25 680.4 476.55 Z"/>
</g>

<g id="Layer1_0_FILL">
<path fill="#FFFFFF" stroke="none" d="
M 807 500
L 668 500 668 727.05 807 727.05 807 500 Z"/>
</g>

<g id="Layer0_0_FILL">
<path fill="#FFCC33" stroke="none" d="
M 527.15 76.35
L 517.15 76.35
Q 516.6220703125 104.751953125 516.2 133.1 479.5357421875 133.862890625 456.65 140.8
L 452.8 151 515.95 151
Q 515.948046875 151.1537109375 515.95 151.3
L 516.95 151.3
Q 517.7671875 151.25 518.75 151.25
L 528.05 151.3
Q 528.896484375 151.3 529.6 151.35 529.6 151.0052734375 529.6 150.65
L 529.6 134.4
Q 529.6 132.833203125 529.7 131.75 528.5888671875 104.0587890625 527.15 76.35
M 556.55 76.35
L 546.55 76.35 546.55 133 546.85 133 546.85 151.05 546.55 151.05 546.55 151.35 547.35 151.35 547.35 150.95 559.25 151 559.25 151 624.65 151 628.5 140.8
Q 590.0671875 135.842578125 558.65 134.05 557.6978515625 105.9033203125 556.55 76.35
M 956 566.6
Q 952.7435546875 574.3279296875 952.1 581.15 951.15 590.8 955.15 598.55
L 954.9 597.9
Q 955.18515625 598.570703125 955.5 599.25
L 557.85 599.25
Q 569.131640625 475.5955078125 560.35 186.8 600.975 186.5142578125 625.6 179.05
L 629.45 168.85 559.8 168.85 559.8 168.8 546.55 168.8 546.55 168.85 546.2 168.85
Q 546.2087890625 169.1419921875 546.2 169.45 546.2 169.5240234375 546.2 169.6
L 546.2 186.7
Q 546.3751953125 186.7212890625 546.55 186.7
L 546.55 595.7 546.8 595.7 547.05 616.85
Q 826.4818359375 618.9443359375 960.35 609.45
L 960.35 602.25
Q 961.53203125 598.166796875 962 593.9 963.369921875 596.2953125 965 598.4 970.85 605.9 982.3 612 987.88671875 614.988671875 993.15 616.85 988.9123046875 617.603515625 984.95 619.55 976.3 623.85 970.35 632.7 967.26875 637.2822265625 965.25 642.55 964.1912109375 639.542578125 962.45 636.4 961.7681640625 635.185546875 960.95 633.95
L 960.95 632.05
Q 960.2802734375 632.0330078125 959.6 632 959.0771484375 631.2869140625 958.5 630.55 958.3095703125 631.267578125 958.1 632 350.7951171875 616.5357421875 132.05 632.05
L 132.05 642.25 133.25 642.25 132.1 646
Q 129.15 637.2 122.25 630.45 115.35 623.7 106.45 620.9 103.859765625 620.0701171875 100.85 619.8 105.7576171875 618.44921875 109.85 615.95 114.2 613.3 118.2 608.95 121.45 605.5 125 600.3 128.1794921875 595.744921875 130.55 591.4 130.93125 595.47578125 132.2 599.25
L 131.45 599.25 131.45 609.45
Q 355.6146484375 615.167578125 527 616.7 526.95 616.098828125 526.95 615.45 526.95 614.8416015625 527 613.95
L 527 607
Q 527 604.95 527.25 603.95 527.320703125 603.64609375 527.4 603.35 527.31171875 602.0619140625 527.55 599.6 527.74140625 598.1650390625 527.9 596.95 537.974609375 391.5916015625 531.65 186.2 531.776171875 186.2296875 531.85 186.2 531.8859375 183.7947265625 531.9 180.6
L 531.6 180.6 531.6 169.1 515.2 169.1 515.2 168.85 457.6 168.85 453.75 179.05
Q 487.32734375 183.38125 515.5 185.3 513.22265625 393.2755859375 516.9 599.25
L 137 599.25
Q 137.823046875 597.21640625 138.35 595.75 140.2 590.65 140.9 586.35 141.9 580.2 140.95 573.95 140.108984375 568.156640625 137.6 562.85 137.4634765625 561.4314453125 137.2 560 134.3470703125 565.6591796875 128.9 572.6
L 128.8 572.8
Q 128.47265625 573.1943359375 128.15 573.6 124.75 577.85 117.75 586.25 115.35 589.3 110.7 595.5 106.5 600.9 103.1 604.25 98.2 609.1 91.45 613.35 86 616.85 78.45 620.5 81.9134765625 621.083984375 85.2 621.25 83.921484375 621.5421875 82.5 621.85 103.25 629.3 112.7 641.2 116.85 646.45 120.15 654.25 122.1 659 125.15 668.6 126.25 671.95 127.15 673.55 128.6 676.15 130.65 677.2 132.7 678.25 135.1 677.75 137.55 677.25 138.95 675.45 141 673 140.9 667.5 140.8 660.7 138.85 652.4 137.9876953125 648.6884765625 136.1 642.25
L 956.7 642.25
Q 956.4888671875 646.3859375 956.9 650.6 957.784375 660.1421875 961.65 668.7 961.8572265625 671.569921875 962.3 674.5 969.9 660.75 972.85 655.65 978.95 645.1 984.4 637.35 989.5 630.2 993.5 626.6 998.782421875 621.9779296875 1005.25 619.65 1008.8638671875 620.0162109375 1012.3 619.75 1007.65 616.9 1001.65 611.6 995 605.5 991.55 602.6 989.55 600.9 982.75 595.5 977.25 591.2 974.1 588.25 969.45 583.9 964.55 577.65 962.797265625 575.4298828125 960.15 571.85 958.9796875 567.865234375 957.15 564.05 956.6107421875 565.19765625 956.1 566.3 956.0638671875 566.238671875 956 566.15 955.998828125 566.3861328125 956 566.6 Z"/>
</g>
</defs>

<g transform="matrix( 1, 0, 0, 1, 0,0) ">
<use xlink:href="#Layer5_0_FILL"/>
</g>

<g transform="matrix( 1, 0, 0, 1, 0,0) ">
<use xlink:href="#Layer4_0_FILL"/>
</g>

<g transform="matrix( 1, 0, 0, 1, 0,0) ">
<use xlink:href="#Layer3_0_FILL"/>
</g>

<g transform="matrix( 1, 0, 0, 1, 0,0) ">
<use xlink:href="#Layer2_0_FILL"/>
</g>

<g transform="matrix( 1, 0, 0, 1, 0,0) ">
<use xlink:href="#Layer1_0_FILL"/>
</g>

<g transform="matrix( 1, 0, 0, 1, 0,0) ">
<use xlink:href="#Layer0_0_FILL"/>
</g>
</svg>
